<?xml version="1.0" encoding="UTF-8"?>
<svg width="36px" height="31px" viewBox="0 0 36 31" version="1.1" xmlns="http://www.w3.org/2000/svg" xmlns:xlink="http://www.w3.org/1999/xlink">
    <!-- Generator: Sketch 60.1 (88133) - https://sketch.com -->
    <title>SMS@2x</title>
    <desc>Created with Sketch.</desc>
    <g id="VirgoX-Web" stroke="none" stroke-width="1" fill="none" fill-rule="evenodd">
        <g id="2.5Getcode备份" transform="translate(-544.000000, -373.000000)" fill="#C1BBF2">
            <path d="M562.002264,399.436085 C560.06789,399.436085 558.154162,399.142123 556.3155,398.561198 L555.276485,398.233115 L554.38795,398.861984 C552.815953,399.976065 550.389542,401.274747 547.375207,401.568709 C548.195501,400.536517 549.412119,398.807216 550.163996,396.811424 L550.649209,395.533215 L549.712905,394.535319 C547.744409,392.443815 546.69857,389.976284 546.69857,387.406392 C546.69857,380.776325 553.567831,375.376698 562.009088,375.376698 C570.450521,375.376698 577.319782,380.776325 577.319782,387.406392 C577.319782,394.036459 570.443697,399.436085 562.002264,399.436085 L562.002264,399.436085 Z M562.002264,373.189481 C552.337565,373.189481 544.504529,379.552883 544.504529,387.406392 C544.504529,390.65992 545.864628,393.63996 548.120261,396.039074 C547.101893,398.732151 544.982917,401.014905 544.948796,401.042377 C544.497705,401.520765 544.374696,402.217875 544.634362,402.819447 C544.894203,403.420844 545.481952,403.810519 546.138117,403.810519 C550.341598,403.810519 553.656719,402.053921 555.645687,400.645878 C557.62783,401.267923 559.760279,401.623302 562.002264,401.623302 C571.667139,401.623302 579.5,395.2599 579.5,387.406392 C579.5,379.552883 571.667139,373.189481 562.002264,373.189481 L562.002264,373.189481 Z M570.163383,385.936932 C570.067671,385.854867 570.019902,385.765979 570.019902,385.67709 C570.019902,385.465193 570.327512,385.225999 570.73066,385.225999 L571.571426,385.225999 C571.872212,385.225999 572.11823,384.979981 572.11823,384.679194 L572.11823,383.585586 C572.11823,383.2848 571.872212,383.038782 571.571426,383.038782 L570.73066,383.038782 C569.131367,383.038782 567.832685,384.221279 567.832685,385.67709 C567.832685,386.408496 568.167592,387.105605 568.741692,387.597817 L570.238624,388.882675 C570.334336,388.96474 570.382105,389.053628 570.382105,389.142517 C570.382105,389.354414 570.074495,389.593608 569.671347,389.593608 L568.837405,389.593608 C568.536619,389.593608 568.290601,389.839627 568.290601,390.140413 L568.290601,391.234021 C568.290601,391.534807 568.536619,391.780825 568.837405,391.780825 L569.678171,391.780825 C571.277464,391.780825 572.576146,390.598328 572.576146,389.142517 C572.576146,388.411112 572.241239,387.714002 571.667139,387.22179 L570.163383,385.936932 Z M553.759256,385.936932 C553.663543,385.854867 553.6156,385.765979 553.6156,385.67709 C553.6156,385.465193 553.92321,385.225999 554.326533,385.225999 L555.167124,385.225999 C555.46791,385.225999 555.713928,384.979981 555.713928,384.679194 L555.713928,383.585586 C555.713928,383.2848 555.46791,383.038782 555.167124,383.038782 L554.333357,383.038782 C552.733889,383.038782 551.435207,384.221279 551.435207,385.67709 C551.435207,386.408496 551.770113,387.105605 552.344389,387.597817 L553.841145,388.882675 C553.936858,388.96474 553.984802,389.053628 553.984802,389.142517 C553.984802,389.354414 553.677192,389.593608 553.273869,389.593608 L552.433103,389.593608 C552.132492,389.593608 551.886298,389.839627 551.886298,390.140413 L551.886298,391.234021 C551.886298,391.534807 552.132492,391.780825 552.433103,391.780825 L553.273869,391.780825 C554.873337,391.780825 556.172019,390.598328 556.172019,389.142517 C556.172019,388.411112 555.837112,387.714002 555.262836,387.22179 L553.759256,385.936932 Z M565.28309,383.031958 L564.189481,383.031958 C563.772685,383.031958 563.396659,383.264328 563.212233,383.633355 L562.002264,386.053117 L560.792471,383.633355 C560.60787,383.264328 560.232018,383.031958 559.815047,383.031958 L558.721439,383.031958 C558.120042,383.031958 557.62783,383.523994 557.62783,384.125566 L557.62783,391.234021 C557.62783,391.534807 557.873849,391.780825 558.174635,391.780825 L559.268243,391.780825 C559.569029,391.780825 559.815047,391.534807 559.815047,391.234021 L559.815047,386.572449 L561.510053,390.386431 C561.708302,390.789754 562.289402,390.789754 562.487652,390.386431 L564.182657,386.572449 L564.182657,391.234021 C564.182657,391.534807 564.42885,391.780825 564.729461,391.780825 L565.82307,391.780825 C566.123856,391.780825 566.369944,391.534807 566.369944,391.234021 L566.369944,384.125566 C566.376698,383.523994 565.884662,383.031958 565.28309,383.031958 L565.28309,383.031958 Z" id="SMS"></path>
        </g>
    </g>
</svg>