<?xml version="1.0" encoding="UTF-8"?>
<svg width="60px" height="55px" viewBox="0 0 60 55" version="1.1" xmlns="http://www.w3.org/2000/svg" xmlns:xlink="http://www.w3.org/1999/xlink">
    <!-- Generator: Sketch 60.1 (88133) - https://sketch.com -->
    <title>Icon-SMSAuthentication@3x</title>
    <desc>Created with Sketch.</desc>
    <g id="Icon-SMSAuthentication" stroke="none" stroke-width="1" fill="none" fill-rule="evenodd">
        <g id="Group-10" fill="#C1BBF2">
            <path d="M56.9944008,27.601184 C56.9944008,30.0758255 55.3445444,32.2506115 52.8699024,32.2506115 L46.6454053,32.2506115 C45.9516729,32.2025237 45.3348787,32.6895577 45.2206201,33.3755397 L43.1958352,42.2997496 L34.3466975,32.7006104 C34.0696647,32.417978 33.6922963,32.2563533 33.2966981,32.2506115 L18.1482772,32.2506115 C15.6133489,32.1726689 13.5767939,30.1359686 13.4987078,27.601184 L13.4987078,7.12812221 C13.4987078,4.65333734 15.6734924,3.00348084 18.1482772,3.00348084 L52.8699024,3.00348084 C55.0197119,2.87544257 56.8663633,4.51453351 56.9944008,6.6643423 C57.0035877,6.81879202 57.0035877,6.9736722 56.9944008,7.12812221 L56.9944008,27.601184 Z M28.4972715,42.6746789 C28.4223437,43.5402292 27.7154061,44.2150148 26.8474152,44.2494646 L16.8733491,44.2494646 C16.4777507,44.2552058 16.100382,44.4168324 15.8234915,44.6994639 L11.0988511,49.7990341 L10.1240665,45.3743922 C9.94894682,44.6947269 9.32569365,44.2273587 8.62421016,44.2494646 L4.12464117,44.2494646 C3.29971294,44.2494646 2.99971294,43.4996075 2.99971294,42.6746789 L2.99971294,28.7259693 C2.99971294,27.901041 3.29971294,27.0011845 4.12464117,27.0011845 L10.4989952,27.0011845 L10.4989952,27.6011845 C10.5788038,31.7921421 13.9571762,35.1705155 18.1482775,35.250324 L28.4972715,35.250324 L28.4972715,42.6746789 Z M52.8699044,0.00376794245 L18.1482779,0.00376794245 C14.023637,0.00376794245 10.4989958,3.00348072 10.4989958,7.12812147 L10.4989958,24.0014712 L4.12464142,24.0014712 C1.64985655,24.0014712 0,26.2513272 0,28.7259682 L0,42.6746775 C0,45.1494595 1.64985655,47.2491736 4.12464142,47.2491736 L7.49928241,47.2491736 L8.84913871,53.2485995 C8.97961753,53.7807059 9.37722466,54.2067338 9.89899511,54.3735275 L10.3489956,54.3735275 C10.7445939,54.3679305 11.1219617,54.2061602 11.398852,53.9235265 L17.5482772,47.2491736 L26.8474174,47.2491736 C29.3700002,47.2104188 31.4171774,45.1963976 31.4969866,42.6746775 L31.4969866,35.2503218 L32.6217706,35.2503218 L42.8958377,46.4242441 C43.1395708,46.7595557 43.5311494,46.9553458 43.9456941,46.9491751 L44.3956964,46.9491751 C44.9064112,46.8092227 45.3054568,46.4101786 45.4455528,45.8993164 L47.845266,35.2503218 L52.8699044,35.2503218 C56.9944023,35.2503218 59.9941162,31.7256811 59.9941162,27.6011828 L59.9941162,7.12812147 C60.1204297,3.31984444 57.1356463,0.130227274 53.3273702,0.00376794245 C53.1749293,-0.00125598088 53.0223453,-0.00125598088 52.8699044,0.00376794245 L52.8699044,0.00376794245 Z" id="Fill-1"></path>
            <path d="M25.2789657,23.2252035 C27.5869984,23.2252035 28.8516741,21.8655199 28.8516741,20.015717 C28.8516741,17.9287607 27.1917875,17.2331085 25.8322614,16.6955591 C24.8837546,16.3003022 24.1565663,15.9682864 24.1565663,15.2568241 C24.1565663,14.624413 24.6308195,14.1817251 25.4212417,14.1817251 C26.2116639,14.1817251 27.0178944,14.4663101 27.6502323,15.0671005 L28.6619726,13.486073 C27.8557421,12.7271797 26.7491512,12.3161125 25.4686672,12.3161125 C23.2871019,12.3161125 21.9908095,13.7232272 21.9908095,15.3833063 C21.9908095,17.4702626 23.6506961,18.1026739 24.9786054,18.6244133 C25.9429202,19.0354799 26.7017257,19.3833061 26.7017257,20.1896302 C26.7017257,20.8378515 26.1958555,21.3595909 25.247349,21.3595909 C24.2198001,21.3595909 23.3029104,20.8852827 22.7179979,20.2370614 L21.6746407,21.8655199 C22.5124881,22.7034641 23.682313,23.2252035 25.2789657,23.2252035 Z M32.8183207,22.9381221 L32.8183207,15.7430114 L35.15585,22.9381221 L36.0245265,22.9381221 L38.3936443,15.7430114 L38.3936443,22.9381221 L40.4784679,22.9381221 L40.4784679,12.4596532 L37.6513209,12.4596532 L35.5980854,18.7435926 L33.5606443,12.4596532 L30.7177029,12.4596532 L30.7177029,22.9381221 L32.8183207,22.9381221 Z M45.8052819,23.2252035 C48.1133149,23.2252035 49.3779907,21.8655199 49.3779907,20.015717 C49.3779907,17.9287607 47.718104,17.2331085 46.3585776,16.6955591 C45.4100707,16.3003022 44.6828823,15.9682864 44.6828823,15.2568241 C44.6828823,14.624413 45.1571356,14.1817251 45.9475579,14.1817251 C46.7379802,14.1817251 47.5442108,14.4663101 48.1765487,15.0671005 L49.1882892,13.486073 C48.3820586,12.7271797 47.2754676,12.3161125 45.9949834,12.3161125 C43.8134178,12.3161125 42.5171252,13.7232272 42.5171252,15.3833063 C42.5171252,17.4702626 44.1770121,18.1026739 45.5049215,18.6244133 C46.4692365,19.0354799 47.2280421,19.3833061 47.2280421,20.1896302 C47.2280421,20.8378515 46.7221718,21.3595909 45.7736652,21.3595909 C44.7461161,21.3595909 43.8292263,20.8852827 43.2443137,20.2370614 L42.2009563,21.8655199 C43.0388039,22.7034641 44.208629,23.2252035 45.8052819,23.2252035 Z" id="SMS"></path>
        </g>
    </g>
</svg>